<svg width="342" height="157" viewBox="0 0 342 157" fill="none" xmlns="http://www.w3.org/2000/svg">
<path d="M3.95705 48V0.44939H15.0698V38.635H34.6902V48H3.95705ZM69.7457 11.2324V48H59.1936V40.7784H58.7319C57.8526 43.3724 56.4456 45.362 54.5111 46.7469C52.5985 48.1099 50.2353 48.7914 47.4213 48.7914C44.7833 48.7914 42.552 48.1979 40.7273 47.0107C38.9247 45.8016 37.5727 44.1309 36.6713 41.9985C35.792 39.8661 35.3523 37.3819 35.3523 34.546V11.2324H45.9045V32.5015C45.9045 34.7439 46.4431 36.4916 47.5203 37.7446C48.6195 38.9977 50.1473 39.6242 52.1039 39.6242C53.5548 39.6242 54.8078 39.3055 55.8631 38.6679C56.9403 38.0084 57.7646 37.1181 58.3362 35.9969C58.9078 34.8538 59.1936 33.5567 59.1936 32.1058V11.2324H69.7457ZM91.2813 48.8244C87.8079 48.8244 84.5983 48.1319 81.6525 46.7469C78.7067 45.34 76.3325 43.2186 74.5298 40.3827C72.7491 37.5248 71.8588 34.0184 71.8588 29.8635C71.8588 25.8185 72.7052 22.3341 74.3979 19.4103C76.1126 16.4645 78.4319 14.2331 81.3557 12.7163C84.3015 11.1774 87.5881 10.408 91.2154 10.408C94.7548 10.408 97.8215 11.1005 100.416 12.4854C103.032 13.8484 105.076 15.6841 106.549 17.9923C108.022 20.3006 108.923 22.8617 109.253 25.6756H98.9316C98.7118 24.4445 98.2941 23.3344 97.6786 22.3451C97.085 21.3558 96.2496 20.5644 95.1724 19.9709C94.0952 19.3553 92.7982 19.0475 91.2813 19.0475C89.4787 19.0475 87.9069 19.4762 86.5659 20.3336C85.2249 21.191 84.2026 22.422 83.4991 24.0268C82.7957 25.6316 82.4439 27.5112 82.4439 29.6656C82.4439 31.908 82.8176 33.8096 83.5651 35.3704C84.3125 36.9312 85.3458 38.1184 86.6648 38.9317C87.9838 39.7451 89.5007 40.1518 91.2154 40.1518C92.7323 40.1518 94.0403 39.8551 95.1395 39.2615C96.2387 38.6679 97.096 37.8875 97.7116 36.9202C98.3271 35.953 98.7448 34.8978 98.9646 33.7546H109.319C108.989 36.5465 108.077 39.0856 106.582 41.3719C105.087 43.6362 103.032 45.4499 100.416 46.8129C97.7995 48.1539 94.7548 48.8244 91.2813 48.8244ZM121.16 48.5936C118.742 48.5936 116.675 48.0989 114.96 47.1097C113.268 46.0984 111.982 44.7464 111.102 43.0537C110.223 41.339 109.783 39.4484 109.783 37.3819C109.783 35.0736 110.333 33.0841 111.432 31.4133C112.531 29.7206 114.081 28.4236 116.082 27.5222C118.082 26.6209 120.412 26.1702 123.072 26.1702H129.404C130.481 26.1702 131.305 25.9174 131.877 25.4118C132.448 24.9062 132.734 24.1368 132.734 23.1035C132.734 22.1802 132.503 21.3668 132.042 20.6633C131.58 19.9379 130.92 19.3773 130.063 18.9816C129.206 18.5859 128.173 18.388 126.963 18.388C125.798 18.388 124.787 18.5859 123.93 18.9816C123.094 19.3773 122.435 19.9379 121.951 20.6633C121.468 21.3668 121.149 22.2132 120.995 23.2025H110.871C111.135 20.5424 111.949 18.2561 113.312 16.3436C114.675 14.431 116.532 12.9691 118.884 11.9578C121.237 10.9466 123.985 10.441 127.128 10.441C130.294 10.441 133.064 10.9246 135.438 11.8919C137.812 12.8592 139.659 14.2991 140.978 16.2117C142.297 18.1242 142.957 20.4545 142.957 23.2025V48H132.734V41.7347H132.272C131.327 43.933 129.865 45.6258 127.887 46.8129C125.908 48 123.666 48.5936 121.16 48.5936ZM124.919 40.8773C126.502 40.8773 127.887 40.5036 129.074 39.7561C130.261 38.9867 131.162 37.9645 131.778 36.6894C132.415 35.3924 132.734 33.9634 132.734 32.4026V32.0729H132.668C132.36 32.1828 131.877 32.2707 131.217 32.3367C130.58 32.3806 129.865 32.4026 129.074 32.4026H124.82C123.347 32.4026 122.16 32.7763 121.259 33.5238C120.379 34.2492 119.94 35.2605 119.94 36.5575C119.94 37.3929 120.127 38.1403 120.5 38.7998C120.874 39.4374 121.435 39.943 122.182 40.3167C122.929 40.6904 123.842 40.8773 124.919 40.8773ZM0.494632 102L17.8067 54.4494H31.5575L48.8696 102H36.9655L33.7339 92.3382H15.6633L12.3988 102H0.494632ZM18.2354 84.0614H31.1288L26.7431 71.069C25.9737 68.5629 25.3691 66.0897 24.9294 63.6495H24.4348C23.9951 66.0897 23.3906 68.5629 22.6212 71.069L18.2354 84.0614ZM60.3147 102H49.7626V54.4494H60.3147V102ZM81.1579 102.791C77.5306 102.791 74.299 102 71.4631 100.417C68.6272 98.8344 66.4069 96.603 64.8021 93.7232C63.2192 90.8213 62.4278 87.4908 62.4278 83.7316C62.4278 79.9284 63.2192 76.5759 64.8021 73.6741C66.4069 70.7503 68.6272 68.475 71.4631 66.8482C74.299 65.2214 77.5306 64.408 81.1579 64.408C84.7412 64.408 87.8849 65.1884 90.5889 66.7492C93.2928 68.2881 95.3813 70.4535 96.8542 73.2454C98.3491 76.0153 99.0965 79.214 99.0965 82.8413C99.0965 83.3469 99.0636 83.9075 98.9976 84.523C98.9536 85.1385 98.8987 85.7431 98.8327 86.3367H72.881C73.1229 88.2492 73.6395 89.8321 74.4309 91.0851C75.2223 92.3162 76.2116 93.2285 77.3987 93.8221C78.5858 94.3937 79.9268 94.6794 81.4217 94.6794C82.5648 94.6794 83.6091 94.5036 84.5543 94.1518C85.4996 93.7781 86.2911 93.2725 86.9286 92.635C87.5661 91.9974 88.0278 91.261 88.3136 90.4256H98.6678C98.2721 92.8438 97.2829 94.9872 95.7001 96.8558C94.1392 98.7244 92.0947 100.186 89.5666 101.242C87.0605 102.275 84.2576 102.791 81.1579 102.791ZM88.6433 79.5767C88.5114 77.9939 88.1267 76.6309 87.4892 75.4877C86.8516 74.3446 85.9833 73.4762 84.8841 72.8827C83.8069 72.2891 82.5648 71.9923 81.1579 71.9923C79.8389 71.9923 78.6188 72.2451 77.4976 72.7508C76.3764 73.2564 75.4201 74.0808 74.6287 75.2239C73.8373 76.3451 73.2877 77.796 72.98 79.5767H88.6433ZM115.917 102.791C110.772 102.791 106.771 101.703 103.914 99.5268C101.078 97.3505 99.5278 94.2508 99.264 90.2278H109.322C109.409 91.8546 110.025 93.1406 111.168 94.0859C112.311 95.0092 113.916 95.4709 115.983 95.4709C117.807 95.4709 119.181 95.1301 120.105 94.4486C121.028 93.7671 121.489 92.9317 121.489 91.9425C121.489 91.1071 121.248 90.4366 120.764 89.931C120.302 89.4034 119.533 88.9637 118.456 88.612C117.401 88.2382 115.928 87.8535 114.037 87.4578C110.761 86.7983 108.178 86.0619 106.288 85.2485C104.419 84.4351 103.012 83.3359 102.067 81.9509C101.122 80.566 100.649 78.7633 100.649 76.5429C100.649 74.1687 101.221 72.0693 102.364 70.2446C103.529 68.42 105.277 67.002 107.607 65.9908C109.959 64.9576 112.795 64.441 116.115 64.441C119.258 64.441 121.962 64.8916 124.226 65.7929C126.491 66.6943 128.249 68.0353 129.503 69.816C130.778 71.5746 131.514 73.729 131.712 76.2791H121.852C121.698 74.8942 121.149 73.795 120.203 72.9816C119.258 72.1682 117.873 71.7615 116.049 71.7615C115.015 71.7615 114.103 71.8934 113.312 72.1572C112.542 72.421 111.938 72.8277 111.498 73.3773C111.08 73.9049 110.871 74.5424 110.871 75.2899C110.871 76.0813 111.08 76.7078 111.498 77.1695C111.938 77.6092 112.674 77.9939 113.707 78.3236C114.741 78.6534 116.213 79.0051 118.126 79.3788C121.511 80.0383 124.172 80.7748 126.106 81.5882C128.041 82.4016 129.503 83.5008 130.492 84.8857C131.481 86.2707 131.976 88.0844 131.976 90.3267C131.976 92.9208 131.36 95.1411 130.129 96.9877C128.92 98.8344 127.117 100.263 124.721 101.275C122.325 102.286 119.39 102.791 115.917 102.791ZM148.631 102.791C143.487 102.791 139.486 101.703 136.628 99.5268C133.792 97.3505 132.242 94.2508 131.978 90.2278H142.036C142.124 91.8546 142.739 93.1406 143.882 94.0859C145.026 95.0092 146.63 95.4709 148.697 95.4709C150.522 95.4709 151.896 95.1301 152.819 94.4486C153.742 93.7671 154.204 92.9317 154.204 91.9425C154.204 91.1071 153.962 90.4366 153.478 89.931C153.017 89.4034 152.247 88.9637 151.17 88.612C150.115 88.2382 148.642 87.8535 146.751 87.4578C143.476 86.7983 140.893 86.0619 139.002 85.2485C137.133 84.4351 135.727 83.3359 134.781 81.9509C133.836 80.566 133.363 78.7633 133.363 76.5429C133.363 74.1687 133.935 72.0693 135.078 70.2446C136.243 68.42 137.991 67.002 140.321 65.9908C142.673 64.9576 145.509 64.441 148.829 64.441C151.972 64.441 154.676 64.8916 156.941 65.7929C159.205 66.6943 160.964 68.0353 162.217 69.816C163.492 71.5746 164.228 73.729 164.426 76.2791H154.567C154.413 74.8942 153.863 73.795 152.918 72.9816C151.972 72.1682 150.587 71.7615 148.763 71.7615C147.73 71.7615 146.817 71.8934 146.026 72.1572C145.256 72.421 144.652 72.8277 144.212 73.3773C143.795 73.9049 143.586 74.5424 143.586 75.2899C143.586 76.0813 143.795 76.7078 144.212 77.1695C144.652 77.6092 145.388 77.9939 146.422 78.3236C147.455 78.6534 148.928 79.0051 150.84 79.3788C154.226 80.0383 156.886 80.7748 158.82 81.5882C160.755 82.4016 162.217 83.5008 163.206 84.8857C164.195 86.2707 164.69 88.0844 164.69 90.3267C164.69 92.9208 164.074 95.1411 162.843 96.9877C161.634 98.8344 159.832 100.263 157.435 101.275C155.039 102.286 152.104 102.791 148.631 102.791ZM176.564 102.594C174.146 102.594 172.079 102.099 170.364 101.11C168.672 100.098 167.386 98.7464 166.506 97.0537C165.627 95.339 165.187 93.4484 165.187 91.3819C165.187 89.0736 165.737 87.0841 166.836 85.4133C167.935 83.7206 169.485 82.4236 171.486 81.5222C173.486 80.6209 175.816 80.1702 178.476 80.1702H184.808C185.885 80.1702 186.709 79.9174 187.281 79.4118C187.852 78.9062 188.138 78.1368 188.138 77.1035C188.138 76.1802 187.907 75.3668 187.446 74.6633C186.984 73.9379 186.325 73.3773 185.467 72.9816C184.61 72.5859 183.577 72.388 182.367 72.388C181.202 72.388 180.191 72.5859 179.334 72.9816C178.498 73.3773 177.839 73.9379 177.355 74.6633C176.872 75.3668 176.553 76.2132 176.399 77.2025H166.275C166.539 74.5424 167.353 72.2561 168.716 70.3436C170.079 68.431 171.936 66.9691 174.288 65.9578C176.641 64.9466 179.389 64.441 182.532 64.441C185.698 64.441 188.468 64.9246 190.842 65.8919C193.216 66.8592 195.063 68.2991 196.382 70.2117C197.701 72.1242 198.361 74.4545 198.361 77.2025V102H188.138V95.7347H187.677C186.731 97.933 185.269 99.6258 183.291 100.813C181.312 102 179.07 102.594 176.564 102.594ZM180.323 94.8773C181.906 94.8773 183.291 94.5036 184.478 93.7561C185.665 92.9867 186.566 91.9645 187.182 90.6894C187.819 89.3924 188.138 87.9634 188.138 86.4026V86.0729H188.072C187.764 86.1828 187.281 86.2707 186.621 86.3367C185.984 86.3806 185.269 86.4026 184.478 86.4026H180.224C178.751 86.4026 177.564 86.7763 176.663 87.5238C175.783 88.2492 175.344 89.2605 175.344 90.5575C175.344 91.3929 175.531 92.1403 175.904 92.7998C176.278 93.4374 176.839 93.943 177.586 94.3167C178.333 94.6904 179.246 94.8773 180.323 94.8773ZM201.463 102V65.2324H212.015V72.454H212.477C213.356 69.8599 214.752 67.8814 216.665 66.5184C218.599 65.1334 220.973 64.441 223.787 64.441C226.425 64.441 228.646 65.0455 230.448 66.2546C232.273 67.4417 233.625 69.1015 234.504 71.2339C235.406 73.3663 235.856 75.8505 235.856 78.6864V102H225.304V80.7308C225.304 78.4885 224.755 76.7408 223.655 75.4877C222.578 74.2347 221.061 73.6081 219.105 73.6081C217.654 73.6081 216.39 73.9379 215.313 74.5974C214.257 75.2349 213.444 76.1253 212.872 77.2684C212.301 78.3896 212.015 79.6756 212.015 81.1265V102H201.463ZM253.171 102.824C250.247 102.824 247.62 102.044 245.29 100.483C242.96 98.9223 241.124 96.7019 239.783 93.8221C238.464 90.9422 237.804 87.6007 237.804 83.7975C237.804 80.2362 238.42 76.9826 239.651 74.0368C240.904 71.091 242.696 68.7607 245.026 67.046C247.356 65.3093 250.093 64.441 253.237 64.441C255.062 64.441 256.776 64.7377 258.381 65.3313C259.986 65.9029 261.404 66.7492 262.635 67.8704C263.866 68.9916 264.833 70.3436 265.537 71.9264H265.999V54.4494H276.551V102H265.999V95.339H265.537C264.789 96.9877 263.778 98.3727 262.503 99.4939C261.25 100.593 259.81 101.428 258.183 102C256.579 102.55 254.908 102.824 253.171 102.824ZM257.326 93.7232C259.063 93.7232 260.602 93.3165 261.943 92.5031C263.284 91.6677 264.317 90.4916 265.042 88.9747C265.79 87.4578 266.163 85.6881 266.163 83.6656C266.163 81.6871 265.79 79.9394 265.042 78.4225C264.317 76.8837 263.284 75.6966 261.943 74.8612C260.602 74.0038 259.052 73.5752 257.293 73.5752C255.578 73.5752 254.05 73.9928 252.709 74.8282C251.39 75.6416 250.357 76.8068 249.61 78.3236C248.862 79.8405 248.489 81.6102 248.489 83.6327C248.489 85.6771 248.862 87.4578 249.61 88.9747C250.379 90.4916 251.423 91.6677 252.742 92.5031C254.083 93.3165 255.611 93.7232 257.326 93.7232ZM280.016 102V65.2324H290.568V74.2017H291.03C291.711 71.058 293.008 68.7827 294.921 67.3758C296.833 65.9468 299.054 65.2324 301.582 65.2324H303.692V75.125H301.549C299.372 75.125 297.449 75.5317 295.778 76.3451C294.129 77.1585 292.843 78.3126 291.92 79.8075C291.019 81.3024 290.568 83.0501 290.568 85.0506V102H280.016ZM322.227 102.824C318.556 102.824 315.236 102.022 312.268 100.417C309.301 98.8124 306.959 96.559 305.245 93.6572C303.552 90.7554 302.705 87.4358 302.705 83.6986C302.705 79.9834 303.541 76.6639 305.212 73.74C306.904 70.8162 309.235 68.5409 312.202 66.9141C315.192 65.2653 318.556 64.441 322.293 64.441C326.052 64.441 329.405 65.2653 332.35 66.9141C335.318 68.5409 337.626 70.8052 339.275 73.7071C340.946 76.6089 341.781 79.9284 341.781 83.6656C341.781 87.4029 340.935 90.7224 339.242 93.6242C337.572 96.5261 335.252 98.7904 332.284 100.417C329.317 102.022 325.964 102.824 322.227 102.824ZM322.227 93.888C323.92 93.888 325.437 93.4703 326.778 92.635C328.141 91.7996 329.207 90.6125 329.976 89.0736C330.746 87.5348 331.13 85.7431 331.13 83.6986C331.13 81.6541 330.746 79.8625 329.976 78.3236C329.207 76.7628 328.152 75.5647 326.811 74.7293C325.47 73.8719 323.953 73.4433 322.26 73.4433C320.545 73.4433 319.017 73.8719 317.676 74.7293C316.335 75.5647 315.28 76.7628 314.511 78.3236C313.763 79.8625 313.39 81.6541 313.39 83.6986C313.39 85.7431 313.763 87.5348 314.511 89.0736C315.28 90.6125 316.335 91.7996 317.676 92.635C319.017 93.4703 320.534 93.888 322.227 93.888ZM3.95705 156V108.449H25.4241C28.3259 108.449 30.854 108.955 33.0084 109.966C35.1628 110.956 36.8226 112.33 37.9877 114.088C39.1529 115.847 39.7354 117.836 39.7354 120.057C39.7354 121.728 39.3727 123.277 38.6472 124.706C37.9438 126.135 36.8885 127.344 35.4816 128.334C34.0746 129.323 32.3489 129.971 30.3044 130.279V130.609C32.6567 130.939 34.7232 131.653 36.5038 132.752C38.2845 133.83 39.6585 135.225 40.6258 136.94C41.615 138.655 42.1097 140.567 42.1097 142.678C42.1097 145.14 41.4941 147.382 40.263 149.405C39.0539 151.427 37.3172 153.032 35.0529 154.219C32.7886 155.406 30.1396 156 27.1058 156H3.95705ZM23.5445 147.591C25.0174 147.591 26.3254 147.349 27.4686 146.866C28.6117 146.382 29.4911 145.657 30.1066 144.689C30.7221 143.722 31.0299 142.557 31.0299 141.194C31.0299 139.919 30.7221 138.831 30.1066 137.929C29.4911 137.006 28.6227 136.314 27.5015 135.852C26.3804 135.368 25.0723 135.127 23.5775 135.127H14.8719V147.591H23.5445ZM22.4233 127.773C23.7863 127.773 24.9734 127.564 25.9847 127.146C27.0179 126.707 27.8093 126.069 28.3589 125.234C28.9085 124.377 29.1833 123.365 29.1833 122.2C29.1833 121.057 28.9305 120.079 28.4248 119.265C27.9412 118.43 27.1938 117.803 26.1825 117.386C25.1713 116.968 23.8962 116.759 22.3574 116.759H14.8719V127.773H22.4233ZM43.2994 156V119.232H53.8516V128.202H54.3132C54.9947 125.058 56.2917 122.783 58.2043 121.376C60.1169 119.947 62.3372 119.232 64.8654 119.232H66.9758V129.125H64.8324C62.656 129.125 60.7324 129.532 59.0617 130.345C57.4129 131.158 56.1269 132.313 55.2036 133.808C54.3022 135.302 53.8516 137.05 53.8516 139.051V156H43.2994ZM77.2338 156.594C74.8156 156.594 72.7491 156.099 71.0344 155.11C69.3417 154.098 68.0556 152.746 67.1763 151.054C66.2969 149.339 65.8573 147.448 65.8573 145.382C65.8573 143.074 66.4069 141.084 67.506 139.413C68.6052 137.721 70.1551 136.424 72.1556 135.522C74.1561 134.621 76.4864 134.17 79.1464 134.17H85.4777C86.5549 134.17 87.3792 133.917 87.9508 133.412C88.5224 132.906 88.8082 132.137 88.8082 131.104C88.8082 130.18 88.5774 129.367 88.1157 128.663C87.654 127.938 86.9945 127.377 86.1372 126.982C85.2798 126.586 84.2466 126.388 83.0375 126.388C81.8723 126.388 80.8611 126.586 80.0037 126.982C79.1684 127.377 78.5089 127.938 78.0252 128.663C77.5416 129.367 77.2228 130.213 77.0689 131.202H66.9455C67.2093 128.542 68.0227 126.256 69.3856 124.344C70.7486 122.431 72.6062 120.969 74.9585 119.958C77.3107 118.947 80.0587 118.441 83.2024 118.441C86.368 118.441 89.1379 118.925 91.5122 119.892C93.8864 120.859 95.733 122.299 97.0521 124.212C98.3711 126.124 99.0306 128.455 99.0306 131.202V156H88.8082V149.735H88.3465C87.4012 151.933 85.9393 153.626 83.9608 154.813C81.9823 156 79.7399 156.594 77.2338 156.594ZM80.993 148.877C82.5758 148.877 83.9608 148.504 85.1479 147.756C86.335 146.987 87.2364 145.964 87.8519 144.689C88.4894 143.392 88.8082 141.963 88.8082 140.403V140.073H88.7422C88.4345 140.183 87.9508 140.271 87.2913 140.337C86.6538 140.381 85.9393 140.403 85.1479 140.403H80.8941C79.4212 140.403 78.2341 140.776 77.3327 141.524C76.4534 142.249 76.0137 143.26 76.0137 144.558C76.0137 145.393 76.2006 146.14 76.5743 146.8C76.948 147.437 77.5086 147.943 78.256 148.317C79.0035 148.69 79.9158 148.877 80.993 148.877ZM100.979 156V148.086L115.29 132.225C115.972 131.477 116.708 130.719 117.499 129.949C118.313 129.18 119.071 128.509 119.775 127.938V127.377H101.144V119.232H131.151V127.377L116.906 142.975C116.246 143.722 115.51 144.492 114.697 145.283C113.883 146.074 113.092 146.822 112.322 147.525V147.855H131.25V156H100.979ZM132.44 156V148.086L146.751 132.225C147.433 131.477 148.169 130.719 148.961 129.949C149.774 129.18 150.533 128.509 151.236 127.938V127.377H132.605V119.232H162.613V127.377L148.367 142.975C147.708 143.722 146.971 144.492 146.158 145.283C145.344 146.074 144.553 146.822 143.784 147.525V147.855H162.711V156H132.44ZM183.126 156.824C179.455 156.824 176.135 156.022 173.167 154.417C170.2 152.812 167.858 150.559 166.144 147.657C164.451 144.755 163.604 141.436 163.604 137.699C163.604 133.983 164.44 130.664 166.111 127.74C167.803 124.816 170.134 122.541 173.101 120.914C176.091 119.265 179.455 118.441 183.192 118.441C186.951 118.441 190.304 119.265 193.249 120.914C196.217 122.541 198.525 124.805 200.174 127.707C201.845 130.609 202.68 133.928 202.68 137.666C202.68 141.403 201.834 144.722 200.141 147.624C198.47 150.526 196.151 152.79 193.183 154.417C190.216 156.022 186.863 156.824 183.126 156.824ZM183.126 147.888C184.819 147.888 186.336 147.47 187.677 146.635C189.04 145.8 190.106 144.612 190.875 143.074C191.645 141.535 192.029 139.743 192.029 137.699C192.029 135.654 191.645 133.862 190.875 132.324C190.106 130.763 189.051 129.565 187.71 128.729C186.369 127.872 184.852 127.443 183.159 127.443C181.444 127.443 179.916 127.872 178.575 128.729C177.234 129.565 176.179 130.763 175.41 132.324C174.662 133.862 174.288 135.654 174.288 137.699C174.288 139.743 174.662 141.535 175.41 143.074C176.179 144.612 177.234 145.8 178.575 146.635C179.916 147.47 181.433 147.888 183.126 147.888ZM215.247 156H204.694V108.449H215.247V156ZM223.955 115.605C222.812 115.605 221.789 115.363 220.888 114.88C220.009 114.374 219.316 113.681 218.811 112.802C218.305 111.901 218.052 110.89 218.052 109.768C218.052 108.625 218.305 107.614 218.811 106.735C219.316 105.833 220.009 105.13 220.888 104.624C221.789 104.119 222.812 103.866 223.955 103.866C225.076 103.866 226.076 104.119 226.956 104.624C227.857 105.13 228.549 105.833 229.033 106.735C229.539 107.614 229.791 108.625 229.791 109.768C229.791 110.89 229.539 111.901 229.033 112.802C228.549 113.681 227.857 114.374 226.956 114.88C226.076 115.363 225.076 115.605 223.955 115.605ZM218.679 156V119.232H229.231V156H218.679Z" fill="black"/>
</svg>
